<svg xmlns="http://www.w3.org/2000/svg" xmlns:xlink="http://www.w3.org/1999/xlink" viewBox="0 0 100 89.51"><defs><style>.cls-1{fill:url(#linear-gradient);}</style><linearGradient id="linear-gradient" x1="57.04" y1="78.25" x2="47.93" y2="20.93" gradientUnits="userSpaceOnUse"><stop offset="0.11" stop-color="#a42274"/><stop offset="0.54" stop-color="#f4d41e"/><stop offset="0.61" stop-color="#f3ce1e"/><stop offset="0.69" stop-color="#f1be1f"/><stop offset="0.79" stop-color="#eda321"/><stop offset="0.9" stop-color="#e97d23"/><stop offset="1" stop-color="#e35326"/></linearGradient></defs><title>Asset 1</title><g id="Layer_2" data-name="Layer 2"><g id="Layer_1-2" data-name="Layer 1"><path class="cls-1" d="M97.91,66.57s-4.82-.16-9.67-4.7S77.52,47.34,76,44.71c1.5-2.63,7.33-12.58,12.23-17.16s9.63-4.7,9.67-4.7L100,22.8,99,21c-.14-.26-3.49-6.47-12.44-6.47-7,0-12.07,5.92-16.94,11.65a81.38,81.38,0,0,1-5.77,6.31,35.75,35.75,0,0,0-18.26-5.6c-.73,0-1.44,0-2.13,0a40.4,40.4,0,0,0-13.62,2.07,16.11,16.11,0,0,1-.92-7.3,52.81,52.81,0,0,1,13.73-1.22h2.19a32.25,32.25,0,0,0,9.75-1.17C64.79,16.08,68.1,7.75,69.17,3.06L69.86,0,67.2,1.68S63,4.28,51.43,4.28c-13.85,0-22.82,5.53-24.8,15.19A53.06,53.06,0,0,0,17.4,23.1C4.17,29.72,0,41.82,0,44.65,0,48,4.28,59.76,17.4,66.32A52.06,52.06,0,0,0,26.64,70c2,9.66,10.94,15.19,24.79,15.19,11.43,0,15.65,2.52,15.77,2.6l2.69,1.77-.72-3.15c-1.07-4.69-4.38-13-14.55-16.12a31.93,31.93,0,0,0-9.75-1.18H42.68A52.38,52.38,0,0,1,29,67.85a16.13,16.13,0,0,1,.92-7.3,40.4,40.4,0,0,0,13.62,2.07l2.13,0A35.76,35.76,0,0,0,63.88,57a79.42,79.42,0,0,1,5.77,6.31C74.52,69,79.56,74.94,86.59,74.94c9,0,12.3-6.2,12.44-6.47l1-1.85ZM71.63,27.81c4.69-5.52,9.13-10.73,15-10.73a11.9,11.9,0,0,1,9,3.53,20.27,20.27,0,0,0-9.08,5.05C81.82,30,76.62,38.5,74.41,42.29A39.19,39.19,0,0,0,66.13,34l0,0,0,0C68.05,32,69.87,29.88,71.63,27.81ZM64.1,53.71a19.86,19.86,0,0,0-6.53-3.84,32.42,32.42,0,0,0-9.91-1.5c-6.31,0-11.95,1.74-15.88,4.9a13.66,13.66,0,0,0-3.24,3.94,13.94,13.94,0,0,1-8-12.39v-.11a14.23,14.23,0,0,1,8-12.5,13.66,13.66,0,0,0,3.24,3.94c3.93,3.16,9.57,4.9,15.88,4.9h0a32.42,32.42,0,0,0,9.91-1.5,19.69,19.69,0,0,0,6.53-3.84,35.82,35.82,0,0,1,8.83,9A35.65,35.65,0,0,1,64.1,53.71ZM43.49,29.4l2,0a33.23,33.23,0,0,1,16.33,4.79,16.73,16.73,0,0,1-5.1,2.87,30.1,30.1,0,0,1-9.11,1.36h0c-5.72,0-10.79-1.54-14.26-4.32a10.78,10.78,0,0,1-2.47-2.94A38.68,38.68,0,0,1,43.49,29.4ZM51.43,6.88c7.31,0,11.89-1,14.47-1.85a18.05,18.05,0,0,1-12,11.67,29.46,29.46,0,0,1-9,1.07l-2.16,0a56.64,56.64,0,0,0-13.24,1C31.71,11.18,39.58,6.88,51.43,6.88ZM18.56,64c-12.14-6.08-16-16.84-16-19.35,0-2.28,4.16-13.32,16-19.23a51.06,51.06,0,0,1,7.69-3.14,18.82,18.82,0,0,0,1.16,7.53l-.05,0,0,0a16.91,16.91,0,0,0-9.46,14.9,16.77,16.77,0,0,0,9.46,14.78l0,0,.05,0a18.82,18.82,0,0,0-1.16,7.53A51.06,51.06,0,0,1,18.56,64Zm24.15,7.67,2.16,0a29.78,29.78,0,0,1,9,1.07,18.05,18.05,0,0,1,12,11.67c-2.58-.85-7.16-1.85-14.47-1.85-11.85,0-19.72-4.29-22-11.87A56.64,56.64,0,0,0,42.71,71.67ZM45.54,60c-.7,0-1.39,0-2,0a38.7,38.7,0,0,1-12.56-1.8A10.58,10.58,0,0,1,33.4,55.3C36.87,52.51,41.94,51,47.66,51a30.06,30.06,0,0,1,9.11,1.36,16.73,16.73,0,0,1,5.1,2.87A33.23,33.23,0,0,1,45.54,60ZM86.59,72.34c-5.83,0-10.27-5.21-15-10.73-1.76-2.07-3.58-4.2-5.51-6.09l0,0,0,0a39.19,39.19,0,0,0,8.28-8.34c2.21,3.79,7.43,12.31,12.06,16.64a20.46,20.46,0,0,0,9.07,5A12,12,0,0,1,86.59,72.34Z"/></g></g></svg>